<svg width="816" height="566" viewBox="0 0 816 566" fill="none" xmlns="http://www.w3.org/2000/svg">
<path d="M60.33 350.995C55.1 345.915 48.07 337.445 48.79 327.595C49.44 318.665 56.12 313.185 85.5 290.675C103.94 276.545 36.97 251.65 100 261.5C163.03 271.35 191.491 253.024 232.5 217C267.923 185.883 299.477 119.935 291.407 111.615C287.477 106.935 275.877 107.655 272.127 107.885C178.267 113.695 100.397 200.365 107.887 290.675C116.517 394.745 202.417 467.725 302.287 455.835C390.857 445.295 455.797 374.245 457.787 285.285C458.327 260.925 457.867 236.545 457.867 210.215C495.537 210.245 533.207 210.275 570.887 210.305C575.107 242.155 583.607 338.385 524.697 430.635C514.177 447.115 482.747 489.035 438.187 518.735C267.877 632.265 35.5373 528.765 3.47728 326.625C-23.6127 155.835 111.127 -0.975431 284.117 0.00456924C342.607 0.334569 391.477 65.4346 397.127 144.635C397.127 214.435 343.207 241.815 331.847 250.455C316.447 262.175 139.45 373.595 96.54 365.955C80.39 363.095 68.09 356.255 60.33 350.995Z" fill="#6854FC"/>
<path d="M458.071 139.5C458.071 107.65 458.24 77.81 458.001 47.97C457.871 31.52 469.629 34.0599 479.481 34.0499C548.707 33.9299 617.934 33.9899 687.16 33.9899C729.482 33.9899 771.804 33.9899 815.661 33.9899C815.661 70.1599 815.661 103.77 815.661 139.51C697.821 139.5 579.641 139.5 458.071 139.5Z" fill="#6854FC"/>
<path d="M756.606 284.88C756.606 321.81 756.606 355.31 756.606 390.26C703.884 390.26 651.161 390.26 598.438 390.26C605.249 379.02 612.938 363.91 618.821 345.18C626.161 321.83 628.076 301.16 628.285 286.14C650.343 286.1 668.213 285.93 680.539 285.78C695.417 285.6 704.512 285.44 721.704 285.23C736.552 285.06 748.678 284.95 756.606 284.88Z" fill="#6854FC"/>
</svg>
