<svg width="855" height="989" viewBox="0 0 855 989" fill="none" xmlns="http://www.w3.org/2000/svg">
<path d="M202.247 266.275C197.017 261.195 189.987 252.725 190.707 242.875C191.357 233.945 198.037 228.465 227.417 205.955C245.857 191.825 253.917 185.775 265.277 175.585C277.457 164.655 283.947 158.705 288.987 148.125C289.757 146.515 301.267 121.705 291.407 111.615C285.837 105.915 275.877 107.655 272.127 107.885C178.267 113.695 100.397 200.365 107.887 290.675C116.517 394.745 202.417 467.725 302.287 455.835C390.857 445.295 455.798 374.245 457.788 285.285C458.328 260.925 457.868 236.545 457.868 210.215C495.538 210.245 533.208 210.275 570.888 210.305C575.108 242.155 583.608 338.385 524.698 430.635C514.178 447.115 482.748 489.035 438.188 518.735C267.878 632.265 35.5373 528.765 3.47728 326.625C-23.6127 155.835 111.127 -0.975431 284.117 0.00456924C342.607 0.334569 400.937 78.8146 397.127 144.635C393.747 203.065 343.207 241.815 331.847 250.455C316.447 262.175 281.367 288.875 238.457 281.235C222.307 278.375 210.007 271.535 202.247 266.275Z" fill="#6854FC"/>
<path d="M458.063 154.5C458.063 122.65 458.233 92.81 457.993 62.97C457.863 46.52 469.653 49.0599 479.533 49.0499C548.953 48.9299 618.373 48.9899 687.793 48.9899C730.233 48.9899 772.673 48.9899 816.653 48.9899C816.653 85.1599 816.653 118.77 816.653 154.51C698.483 154.5 579.973 154.5 458.063 154.5Z" fill="#6854FC"/>
<path d="M757.433 299.88C757.433 336.81 757.433 370.31 757.433 405.26C704.563 405.26 651.693 405.26 598.823 405.26C605.653 394.02 613.363 378.91 619.263 360.18C626.623 336.83 628.543 316.16 628.753 301.14C650.873 301.1 668.793 300.93 681.153 300.78C696.073 300.6 705.193 300.44 722.433 300.23C737.323 300.06 749.483 299.95 757.433 299.88Z" fill="#6854FC"/>
<path d="M147.471 872V653.399H279.4V676.881H173.942V750.745H272.569V774.227H173.942V848.517H281.108V872H147.471ZM396.706 708.049V729.397H308.327V708.049H396.706ZM334.798 872V685.42C334.798 676.027 337.004 668.2 341.416 661.938C345.828 655.676 351.556 650.979 358.601 647.848C365.645 644.717 373.082 643.152 380.909 643.152C387.1 643.152 392.152 643.65 396.066 644.646C399.98 645.642 402.897 646.568 404.819 647.421L397.56 669.196C396.279 668.769 394.501 668.236 392.223 667.595C390.017 666.955 387.1 666.634 383.471 666.634C375.145 666.634 369.132 668.734 365.432 672.932C361.803 677.13 359.988 683.286 359.988 691.398V872H334.798ZM493.999 875.416C478.202 875.416 464.575 871.929 453.118 864.955C441.732 857.91 432.944 848.09 426.753 835.495C420.634 822.829 417.574 808.099 417.574 791.305C417.574 774.512 420.634 759.711 426.753 746.902C432.944 734.022 441.555 723.989 452.584 716.802C463.685 709.543 476.636 705.914 491.437 705.914C499.976 705.914 508.409 707.338 516.734 710.184C525.06 713.03 532.638 717.656 539.47 724.06C546.301 730.393 551.745 738.79 555.801 749.25C559.857 759.711 561.885 772.591 561.885 787.89V798.564H435.506V776.789H536.267C536.267 767.538 534.417 759.284 530.717 752.026C527.088 744.767 521.893 739.039 515.133 734.841C508.444 730.642 500.546 728.543 491.437 728.543C481.404 728.543 472.722 731.034 465.393 736.015C458.135 740.925 452.549 747.329 448.635 755.228C444.721 763.126 442.764 771.594 442.764 780.632V795.148C442.764 807.53 444.899 818.026 449.169 826.636C453.509 835.175 459.522 841.686 467.207 846.169C474.893 850.581 483.823 852.787 493.999 852.787C500.617 852.787 506.594 851.862 511.931 850.012C517.339 848.09 522 845.244 525.914 841.473C529.828 837.63 532.852 832.862 534.987 827.17L559.323 834.001C556.761 842.255 552.456 849.514 546.408 855.776C540.359 861.967 532.887 866.805 523.993 870.292C515.098 873.708 505.1 875.416 493.999 875.416ZM666.809 875.416C651.439 875.416 638.203 871.787 627.102 864.528C616.001 857.27 607.462 847.272 601.485 834.535C595.508 821.797 592.519 807.245 592.519 790.878C592.519 774.227 595.579 759.533 601.698 746.795C607.889 733.987 616.5 723.989 627.529 716.802C638.63 709.543 651.581 705.914 666.382 705.914C677.91 705.914 688.299 708.049 697.55 712.319C706.801 716.588 714.379 722.566 720.285 730.251C726.191 737.936 729.856 746.902 731.279 757.149H706.089C704.168 749.677 699.898 743.059 693.28 737.296C686.734 731.461 677.91 728.543 666.809 728.543C656.989 728.543 648.379 731.105 640.978 736.228C633.649 741.28 627.921 748.432 623.793 757.683C619.737 766.862 617.709 777.643 617.709 790.025C617.709 802.691 619.702 813.721 623.687 823.114C627.743 832.507 633.435 839.8 640.765 844.995C648.165 850.19 656.847 852.787 666.809 852.787C673.356 852.787 679.298 851.648 684.634 849.371C689.971 847.094 694.49 843.821 698.19 839.551C701.891 835.282 704.523 830.158 706.089 824.181H731.279C729.856 833.859 726.334 842.576 720.712 850.332C715.162 858.017 707.797 864.137 698.617 868.691C689.509 873.174 678.906 875.416 666.809 875.416ZM839.406 708.049V729.397H754.442V708.049H839.406ZM779.205 668.769H804.396V825.035C804.396 832.151 805.427 837.488 807.491 841.046C809.626 844.533 812.33 846.881 815.603 848.09C818.948 849.229 822.47 849.798 826.17 849.798C828.945 849.798 831.223 849.656 833.002 849.371C834.781 849.016 836.204 848.731 837.271 848.517L842.395 871.146C840.687 871.787 838.303 872.427 835.243 873.067C832.183 873.779 828.305 874.135 823.609 874.135C816.493 874.135 809.519 872.605 802.688 869.545C795.928 866.485 790.306 861.824 785.823 855.562C781.411 849.3 779.205 841.402 779.205 831.866V668.769Z" fill="#393A3A"/>
<path d="M122.763 919.427V913.341H165.257V919.427H147.44V970H140.579V919.427H122.763ZM186.615 970.885C182.52 970.885 178.988 969.982 176.019 968.174C173.068 966.348 170.79 963.803 169.185 960.538C167.599 957.255 166.806 953.438 166.806 949.085C166.806 944.732 167.599 940.896 169.185 937.576C170.79 934.238 173.022 931.637 175.881 929.774C178.758 927.893 182.115 926.952 185.951 926.952C188.164 926.952 190.35 927.321 192.508 928.059C194.665 928.797 196.63 929.996 198.4 931.655C200.171 933.297 201.582 935.473 202.633 938.185C203.684 940.896 204.21 944.234 204.21 948.199V950.966H171.454V945.322H197.57C197.57 942.925 197.091 940.785 196.132 938.904C195.191 937.023 193.845 935.538 192.093 934.45C190.359 933.361 188.312 932.817 185.951 932.817C183.35 932.817 181.1 933.463 179.2 934.754C177.319 936.027 175.871 937.687 174.857 939.734C173.842 941.781 173.335 943.976 173.335 946.318V950.081C173.335 953.29 173.889 956.01 174.995 958.242C176.12 960.455 177.679 962.143 179.671 963.305C181.663 964.448 183.977 965.02 186.615 965.02C188.33 965.02 189.879 964.78 191.263 964.301C192.664 963.803 193.872 963.065 194.887 962.088C195.901 961.092 196.685 959.856 197.238 958.38L203.546 960.151C202.882 962.291 201.766 964.172 200.199 965.795C198.631 967.399 196.694 968.654 194.389 969.557C192.083 970.443 189.492 970.885 186.615 970.885ZM231.405 970.885C227.422 970.885 223.991 969.945 221.114 968.063C218.237 966.182 216.023 963.591 214.474 960.289C212.925 956.988 212.15 953.216 212.15 948.974C212.15 944.658 212.943 940.85 214.529 937.548C216.134 934.228 218.366 931.637 221.224 929.774C224.102 927.893 227.458 926.952 231.295 926.952C234.283 926.952 236.975 927.506 239.373 928.612C241.771 929.719 243.735 931.268 245.266 933.26C246.797 935.252 247.747 937.576 248.115 940.232H241.586C241.088 938.295 239.982 936.58 238.267 935.086C236.57 933.574 234.283 932.817 231.405 932.817C228.86 932.817 226.629 933.481 224.71 934.809C222.811 936.119 221.326 937.972 220.256 940.37C219.205 942.749 218.679 945.544 218.679 948.753C218.679 952.036 219.196 954.895 220.229 957.329C221.28 959.764 222.755 961.654 224.655 963.001C226.573 964.347 228.823 965.02 231.405 965.02C233.102 965.02 234.642 964.725 236.026 964.135C237.409 963.545 238.58 962.696 239.539 961.59C240.498 960.483 241.181 959.155 241.586 957.606H248.115C247.747 960.114 246.834 962.374 245.377 964.384C243.938 966.376 242.029 967.962 239.65 969.142C237.289 970.304 234.541 970.885 231.405 970.885ZM264.189 944.437V970H257.66V913.341H264.189V934.145H264.743C265.738 931.951 267.232 930.208 269.224 928.917C271.235 927.607 273.909 926.952 277.247 926.952C280.143 926.952 282.679 927.533 284.855 928.695C287.032 929.839 288.719 931.6 289.918 933.979C291.136 936.34 291.744 939.346 291.744 942.998V970H285.215V943.441C285.215 940.066 284.339 937.456 282.587 935.612C280.853 933.749 278.446 932.817 275.366 932.817C273.227 932.817 271.308 933.269 269.612 934.173C267.933 935.077 266.605 936.395 265.628 938.129C264.669 939.863 264.189 941.965 264.189 944.437ZM310.218 944.437V970H303.689V927.506H309.997V934.145H310.55C311.546 931.987 313.058 930.254 315.087 928.944C317.116 927.616 319.735 926.952 322.944 926.952C325.821 926.952 328.339 927.542 330.497 928.723C332.655 929.885 334.333 931.655 335.532 934.035C336.731 936.395 337.33 939.383 337.33 942.998V970H330.801V943.441C330.801 940.103 329.934 937.502 328.201 935.639C326.467 933.758 324.088 932.817 321.063 932.817C318.979 932.817 317.116 933.269 315.474 934.173C313.851 935.077 312.569 936.395 311.629 938.129C310.688 939.863 310.218 941.965 310.218 944.437ZM349.261 970V927.506H355.79V970H349.261ZM352.581 920.423C351.308 920.423 350.211 919.99 349.289 919.123C348.385 918.256 347.933 917.214 347.933 915.997C347.933 914.779 348.385 913.737 349.289 912.87C350.211 912.004 351.308 911.57 352.581 911.57C353.853 911.57 354.942 912.004 355.845 912.87C356.768 913.737 357.229 914.779 357.229 915.997C357.229 917.214 356.768 918.256 355.845 919.123C354.942 919.99 353.853 920.423 352.581 920.423ZM385.012 970.885C381.028 970.885 377.598 969.945 374.72 968.063C371.843 966.182 369.63 963.591 368.081 960.289C366.531 956.988 365.757 953.216 365.757 948.974C365.757 944.658 366.55 940.85 368.136 937.548C369.74 934.228 371.972 931.637 374.831 929.774C377.708 927.893 381.065 926.952 384.901 926.952C387.889 926.952 390.582 927.506 392.98 928.612C395.377 929.719 397.342 931.268 398.872 933.26C400.403 935.252 401.353 937.576 401.722 940.232H395.193C394.695 938.295 393.588 936.58 391.873 935.086C390.176 933.574 387.889 932.817 385.012 932.817C382.467 932.817 380.235 933.481 378.317 934.809C376.417 936.119 374.932 937.972 373.863 940.37C372.811 942.749 372.286 945.544 372.286 948.753C372.286 952.036 372.802 954.895 373.835 957.329C374.886 959.764 376.362 961.654 378.261 963.001C380.18 964.347 382.43 965.02 385.012 965.02C386.709 965.02 388.249 964.725 389.632 964.135C391.015 963.545 392.187 962.696 393.146 961.59C394.105 960.483 394.787 959.155 395.193 957.606H401.722C401.353 960.114 400.44 962.374 398.983 964.384C397.544 966.376 395.636 967.962 393.256 969.142C390.895 970.304 388.147 970.885 385.012 970.885ZM423.771 970.996C421.079 970.996 418.635 970.489 416.44 969.474C414.245 968.442 412.502 966.957 411.211 965.02C409.92 963.065 409.275 960.704 409.275 957.938C409.275 955.503 409.754 953.53 410.713 952.017C411.672 950.487 412.954 949.288 414.559 948.421C416.163 947.554 417.934 946.908 419.871 946.484C421.826 946.042 423.79 945.691 425.763 945.433C428.345 945.101 430.439 944.852 432.043 944.686C433.667 944.502 434.847 944.197 435.585 943.773C436.341 943.349 436.719 942.611 436.719 941.56V941.338C436.719 938.609 435.972 936.488 434.478 934.975C433.003 933.463 430.762 932.707 427.755 932.707C424.638 932.707 422.195 933.389 420.424 934.754C418.653 936.119 417.408 937.576 416.689 939.125L410.492 936.912C411.599 934.33 413.074 932.319 414.918 930.881C416.781 929.424 418.81 928.409 421.005 927.838C423.218 927.247 425.394 926.952 427.534 926.952C428.899 926.952 430.467 927.118 432.237 927.45C434.026 927.764 435.751 928.419 437.411 929.415C439.089 930.41 440.481 931.914 441.588 933.924C442.695 935.934 443.248 938.627 443.248 942.002V970H436.719V964.246H436.387C435.944 965.168 435.207 966.154 434.174 967.206C433.141 968.257 431.767 969.152 430.052 969.889C428.336 970.627 426.243 970.996 423.771 970.996ZM424.767 965.131C427.35 965.131 429.526 964.624 431.296 963.609C433.086 962.595 434.432 961.285 435.336 959.681C436.258 958.076 436.719 956.389 436.719 954.618V948.642C436.442 948.974 435.834 949.278 434.893 949.555C433.971 949.813 432.901 950.044 431.684 950.247C430.485 950.431 429.314 950.597 428.17 950.745C427.045 950.874 426.132 950.984 425.431 951.077C423.735 951.298 422.148 951.658 420.673 952.156C419.216 952.635 418.035 953.364 417.132 954.341C416.246 955.3 415.804 956.61 415.804 958.27C415.804 960.538 416.643 962.254 418.321 963.416C420.018 964.559 422.167 965.131 424.767 965.131ZM461.694 913.341V970H455.165V913.341H461.694ZM527.435 927.506C527.103 924.702 525.756 922.526 523.395 920.977C521.035 919.427 518.139 918.653 514.708 918.653C512.2 918.653 510.005 919.058 508.124 919.87C506.261 920.681 504.804 921.797 503.753 923.217C502.72 924.638 502.204 926.251 502.204 928.059C502.204 929.571 502.563 930.872 503.282 931.96C504.02 933.03 504.961 933.924 506.104 934.643C507.248 935.344 508.447 935.925 509.701 936.386C510.955 936.829 512.108 937.189 513.159 937.465L518.914 939.014C520.389 939.402 522.031 939.937 523.838 940.619C525.664 941.302 527.407 942.233 529.067 943.413C530.745 944.575 532.128 946.069 533.217 947.895C534.305 949.721 534.849 951.962 534.849 954.618C534.849 957.68 534.047 960.446 532.442 962.918C530.856 965.389 528.532 967.353 525.47 968.81C522.427 970.267 518.729 970.996 514.376 970.996C510.319 970.996 506.805 970.341 503.836 969.032C500.885 967.722 498.561 965.896 496.864 963.554C495.186 961.212 494.236 958.491 494.014 955.393H501.097C501.281 957.532 502.001 959.303 503.255 960.704C504.527 962.088 506.132 963.12 508.069 963.803C510.024 964.467 512.126 964.799 514.376 964.799C516.995 964.799 519.347 964.375 521.431 963.526C523.515 962.659 525.166 961.461 526.383 959.93C527.601 958.38 528.209 956.573 528.209 954.507C528.209 952.626 527.684 951.095 526.632 949.915C525.581 948.734 524.198 947.775 522.482 947.038C520.767 946.3 518.914 945.654 516.922 945.101L509.95 943.109C505.523 941.836 502.019 940.02 499.437 937.659C496.855 935.298 495.564 932.209 495.564 928.391C495.564 925.219 496.421 922.452 498.137 920.091C499.87 917.712 502.194 915.868 505.108 914.558C508.041 913.23 511.315 912.566 514.93 912.566C518.582 912.566 521.828 913.221 524.668 914.53C527.508 915.821 529.758 917.592 531.418 919.842C533.097 922.092 533.982 924.647 534.074 927.506H527.435ZM562.508 970.885C558.671 970.885 555.305 969.972 552.41 968.146C549.532 966.32 547.282 963.766 545.659 960.483C544.055 957.2 543.252 953.364 543.252 948.974C543.252 944.548 544.055 940.684 545.659 937.382C547.282 934.081 549.532 931.517 552.41 929.691C555.305 927.865 558.671 926.952 562.508 926.952C566.344 926.952 569.701 927.865 572.578 929.691C575.474 931.517 577.724 934.081 579.328 937.382C580.951 940.684 581.763 944.548 581.763 948.974C581.763 953.364 580.951 957.2 579.328 960.483C577.724 963.766 575.474 966.32 572.578 968.146C569.701 969.972 566.344 970.885 562.508 970.885ZM562.508 965.02C565.422 965.02 567.819 964.273 569.701 962.779C571.582 961.285 572.974 959.321 573.878 956.886C574.782 954.452 575.234 951.814 575.234 948.974C575.234 946.134 574.782 943.487 573.878 941.034C572.974 938.581 571.582 936.598 569.701 935.086C567.819 933.574 565.422 932.817 562.508 932.817C559.594 932.817 557.196 933.574 555.315 935.086C553.433 936.598 552.041 938.581 551.137 941.034C550.233 943.487 549.781 946.134 549.781 948.974C549.781 951.814 550.233 954.452 551.137 956.886C552.041 959.321 553.433 961.285 555.315 962.779C557.196 964.273 559.594 965.02 562.508 965.02ZM598.259 913.341V970H591.729V913.341H598.259ZM636.997 952.626V927.506H643.526V970H636.997V962.807H636.555C635.559 964.965 634.009 966.8 631.907 968.312C629.804 969.806 627.148 970.553 623.939 970.553C621.283 970.553 618.922 969.972 616.857 968.81C614.791 967.63 613.168 965.859 611.988 963.499C610.807 961.119 610.217 958.122 610.217 954.507V927.506H616.746V954.065C616.746 957.163 617.613 959.635 619.347 961.479C621.099 963.323 623.331 964.246 626.042 964.246C627.665 964.246 629.316 963.831 630.994 963.001C632.691 962.171 634.111 960.898 635.254 959.183C636.416 957.467 636.997 955.282 636.997 952.626ZM673.966 927.506V933.039H651.944V927.506H673.966ZM658.362 917.325H664.891V957.827C664.891 959.671 665.159 961.055 665.693 961.977C666.247 962.881 666.948 963.489 667.796 963.803C668.663 964.098 669.576 964.246 670.535 964.246C671.254 964.246 671.844 964.209 672.306 964.135C672.767 964.043 673.136 963.969 673.412 963.914L674.74 969.779C674.297 969.945 673.68 970.111 672.887 970.277C672.093 970.461 671.088 970.553 669.871 970.553C668.027 970.553 666.219 970.157 664.449 969.364C662.696 968.571 661.239 967.363 660.077 965.739C658.934 964.116 658.362 962.069 658.362 959.598V917.325ZM683.787 970V927.506H690.316V970H683.787ZM687.107 920.423C685.834 920.423 684.737 919.99 683.814 919.123C682.911 918.256 682.459 917.214 682.459 915.997C682.459 914.779 682.911 913.737 683.814 912.87C684.737 912.004 685.834 911.57 687.107 911.57C688.379 911.57 689.467 912.004 690.371 912.87C691.293 913.737 691.755 914.779 691.755 915.997C691.755 917.214 691.293 918.256 690.371 919.123C689.467 919.99 688.379 920.423 687.107 920.423ZM719.538 970.885C715.701 970.885 712.335 969.972 709.44 968.146C706.563 966.32 704.312 963.766 702.689 960.483C701.085 957.2 700.282 953.364 700.282 948.974C700.282 944.548 701.085 940.684 702.689 937.382C704.312 934.081 706.563 931.517 709.44 929.691C712.335 927.865 715.701 926.952 719.538 926.952C723.374 926.952 726.731 927.865 729.608 929.691C732.504 931.517 734.754 934.081 736.358 937.382C737.981 940.684 738.793 944.548 738.793 948.974C738.793 953.364 737.981 957.2 736.358 960.483C734.754 963.766 732.504 966.32 729.608 968.146C726.731 969.972 723.374 970.885 719.538 970.885ZM719.538 965.02C722.452 965.02 724.85 964.273 726.731 962.779C728.612 961.285 730.005 959.321 730.908 956.886C731.812 954.452 732.264 951.814 732.264 948.974C732.264 946.134 731.812 943.487 730.908 941.034C730.005 938.581 728.612 936.598 726.731 935.086C724.85 933.574 722.452 932.817 719.538 932.817C716.624 932.817 714.226 933.574 712.345 935.086C710.463 936.598 709.071 938.581 708.167 941.034C707.263 943.487 706.812 946.134 706.812 948.974C706.812 951.814 707.263 954.452 708.167 956.886C709.071 959.321 710.463 961.285 712.345 962.779C714.226 964.273 716.624 965.02 719.538 965.02ZM755.289 944.437V970H748.76V927.506H755.067V934.145H755.621C756.617 931.987 758.129 930.254 760.158 928.944C762.187 927.616 764.806 926.952 768.015 926.952C770.892 926.952 773.41 927.542 775.568 928.723C777.725 929.885 779.404 931.655 780.603 934.035C781.802 936.395 782.401 939.383 782.401 942.998V970H775.872V943.441C775.872 940.103 775.005 937.502 773.271 935.639C771.538 933.758 769.158 932.817 766.134 932.817C764.049 932.817 762.187 933.269 760.545 934.173C758.922 935.077 757.64 936.395 756.7 938.129C755.759 939.863 755.289 941.965 755.289 944.437ZM824.432 937.023L818.567 938.683C818.198 937.705 817.654 936.755 816.935 935.833C816.234 934.892 815.275 934.118 814.057 933.509C812.84 932.9 811.282 932.596 809.382 932.596C806.781 932.596 804.614 933.195 802.88 934.394C801.165 935.575 800.308 937.078 800.308 938.904C800.308 940.527 800.898 941.809 802.078 942.749C803.259 943.69 805.103 944.474 807.611 945.101L813.919 946.65C817.718 947.572 820.55 948.983 822.412 950.883C824.275 952.764 825.207 955.19 825.207 958.159C825.207 960.594 824.506 962.77 823.104 964.688C821.721 966.606 819.784 968.119 817.294 969.225C814.804 970.332 811.909 970.885 808.607 970.885C804.273 970.885 800.686 969.945 797.845 968.063C795.005 966.182 793.207 963.434 792.45 959.819L798.648 958.27C799.238 960.557 800.354 962.272 801.995 963.416C803.655 964.559 805.822 965.131 808.497 965.131C811.54 965.131 813.956 964.485 815.745 963.194C817.552 961.885 818.456 960.317 818.456 958.491C818.456 957.016 817.94 955.78 816.907 954.784C815.874 953.769 814.288 953.013 812.148 952.515L805.066 950.855C801.174 949.933 798.316 948.504 796.49 946.567C794.682 944.612 793.778 942.168 793.778 939.236C793.778 936.838 794.452 934.717 795.798 932.873C797.163 931.028 799.016 929.581 801.359 928.529C803.72 927.478 806.394 926.952 809.382 926.952C813.587 926.952 816.888 927.874 819.286 929.719C821.702 931.563 823.418 933.998 824.432 937.023Z" fill="#6A6A6A"/>
</svg>
