<svg width="816" height="974" viewBox="0 0 816 974" fill="none" xmlns="http://www.w3.org/2000/svg">
<path d="M60.33 350.995C55.1 345.915 48.07 337.445 48.79 327.595C49.44 318.665 56.12 313.185 85.5 290.675C103.94 276.545 36.97 251.65 100 261.5C163.03 271.35 191.491 253.024 232.5 217C267.923 185.883 299.477 119.935 291.407 111.615C287.477 106.935 275.877 107.655 272.127 107.885C178.267 113.695 100.397 200.365 107.887 290.675C116.517 394.745 202.417 467.725 302.287 455.835C390.857 445.295 455.797 374.245 457.787 285.285C458.327 260.925 457.867 236.545 457.867 210.215C495.537 210.245 533.207 210.275 570.887 210.305C575.107 242.155 583.607 338.385 524.697 430.635C514.177 447.115 482.747 489.035 438.187 518.735C267.877 632.265 35.5373 528.765 3.47728 326.625C-23.6127 155.835 111.127 -0.975431 284.117 0.00456924C342.607 0.334569 391.477 65.4346 397.127 144.635C397.127 214.435 343.207 241.815 331.847 250.455C316.447 262.175 139.45 373.595 96.54 365.955C80.39 363.095 68.09 356.255 60.33 350.995Z" fill="#6854FC"/>
<path d="M458.071 139.5C458.071 107.65 458.24 77.81 458.001 47.97C457.871 31.52 469.629 34.0599 479.481 34.0499C548.707 33.9299 617.934 33.9899 687.16 33.9899C729.482 33.9899 771.804 33.9899 815.661 33.9899C815.661 70.1599 815.661 103.77 815.661 139.51C697.821 139.5 579.641 139.5 458.071 139.5Z" fill="#6854FC"/>
<path d="M756.606 284.88C756.606 321.81 756.606 355.31 756.606 390.26C703.884 390.26 651.161 390.26 598.438 390.26C605.249 379.02 612.938 363.91 618.821 345.18C626.161 321.83 628.076 301.16 628.285 286.14C650.343 286.1 668.213 285.93 680.539 285.78C695.417 285.6 704.512 285.44 721.704 285.23C736.552 285.06 748.678 284.95 756.606 284.88Z" fill="#6854FC"/>
<path d="M67.85 857V638.399H199.779V661.881H94.3212V735.745H192.948V759.227H94.3212V833.517H201.487V857H67.85ZM317.085 693.049V714.397H228.705V693.049H317.085ZM255.177 857V670.42C255.177 661.027 257.383 653.2 261.794 646.938C266.206 640.676 271.935 635.979 278.979 632.848C286.024 629.717 293.46 628.152 301.288 628.152C307.479 628.152 312.531 628.65 316.445 629.646C320.359 630.642 323.276 631.568 325.197 632.421L317.939 654.196C316.658 653.769 314.879 653.236 312.602 652.595C310.396 651.955 307.479 651.634 303.85 651.634C295.524 651.634 289.511 653.734 285.811 657.932C282.182 662.13 280.367 668.286 280.367 676.398V857H255.177ZM414.378 860.416C398.58 860.416 384.953 856.929 373.497 849.955C362.111 842.91 353.323 833.09 347.132 820.495C341.012 807.829 337.953 793.099 337.953 776.305C337.953 759.512 341.012 744.711 347.132 731.902C353.323 719.022 361.933 708.989 372.963 701.802C384.064 694.543 397.015 690.914 411.816 690.914C420.355 690.914 428.787 692.338 437.113 695.184C445.439 698.03 453.017 702.656 459.848 709.06C466.68 715.393 472.123 723.79 476.179 734.25C480.236 744.711 482.264 757.591 482.264 772.89V783.564H355.885V761.789H456.646C456.646 752.538 454.796 744.284 451.096 737.026C447.467 729.767 442.272 724.039 435.512 719.841C428.823 715.642 420.924 713.543 411.816 713.543C401.782 713.543 393.101 716.034 385.772 721.015C378.513 725.925 372.927 732.329 369.014 740.228C365.1 748.126 363.143 756.594 363.143 765.632V780.148C363.143 792.53 365.278 803.026 369.547 811.636C373.888 820.175 379.901 826.686 387.586 831.169C395.271 835.581 404.202 837.787 414.378 837.787C420.995 837.787 426.973 836.862 432.31 835.012C437.718 833.09 442.379 830.244 446.293 826.473C450.206 822.63 453.231 817.862 455.365 812.17L479.702 819.001C477.14 827.255 472.835 834.514 466.786 840.776C460.738 846.967 453.266 851.805 444.371 855.292C435.476 858.708 425.479 860.416 414.378 860.416ZM587.188 860.416C571.817 860.416 558.582 856.787 547.481 849.528C536.38 842.27 527.841 832.272 521.864 819.535C515.886 806.797 512.898 792.245 512.898 775.878C512.898 759.227 515.957 744.533 522.077 731.795C528.268 718.987 536.878 708.989 547.908 701.802C559.009 694.543 571.96 690.914 586.761 690.914C598.289 690.914 608.678 693.049 617.929 697.319C627.179 701.588 634.758 707.566 640.664 715.251C646.57 722.936 650.235 731.902 651.658 742.149H626.468C624.546 734.677 620.277 728.059 613.659 722.296C607.112 716.461 598.289 713.543 587.188 713.543C577.368 713.543 568.758 716.105 561.357 721.228C554.028 726.28 548.299 733.432 544.172 742.683C540.116 751.862 538.088 762.643 538.088 775.025C538.088 787.691 540.08 798.721 544.065 808.114C548.121 817.507 553.814 824.8 561.144 829.995C568.544 835.19 577.226 837.787 587.188 837.787C593.735 837.787 599.676 836.648 605.013 834.371C610.35 832.094 614.869 828.821 618.569 824.551C622.269 820.282 624.902 815.158 626.468 809.181H651.658C650.235 818.859 646.713 827.576 641.091 835.332C635.541 843.017 628.176 849.137 618.996 853.691C609.888 858.174 599.285 860.416 587.188 860.416ZM759.785 693.049V714.397H674.821V693.049H759.785ZM699.584 653.769H724.774V810.035C724.774 817.151 725.806 822.488 727.87 826.046C730.004 829.533 732.709 831.881 735.982 833.09C739.326 834.229 742.849 834.798 746.549 834.798C749.324 834.798 751.601 834.656 753.38 834.371C755.159 834.016 756.582 833.731 757.65 833.517L762.773 856.146C761.066 856.787 758.682 857.427 755.622 858.067C752.562 858.779 748.684 859.135 743.987 859.135C736.871 859.135 729.898 857.605 723.066 854.545C716.306 851.485 710.685 846.824 706.202 840.562C701.79 834.3 699.584 826.402 699.584 816.866V653.769Z" fill="#393A3A"/>
<path d="M56.233 904.427V898.341H98.7274V904.427H80.9108V955H74.0497V904.427H56.233ZM120.085 955.885C115.991 955.885 112.459 954.982 109.489 953.174C106.538 951.348 104.261 948.803 102.656 945.538C101.07 942.255 100.277 938.438 100.277 934.085C100.277 929.732 101.07 925.896 102.656 922.576C104.261 919.238 106.492 916.637 109.351 914.774C112.228 912.893 115.585 911.952 119.421 911.952C121.635 911.952 123.82 912.321 125.978 913.059C128.136 913.797 130.1 914.996 131.871 916.655C133.641 918.297 135.052 920.473 136.104 923.185C137.155 925.896 137.681 929.234 137.681 933.199V935.966H104.925V930.322H131.041C131.041 927.925 130.561 925.785 129.602 923.904C128.662 922.023 127.315 920.538 125.563 919.45C123.829 918.361 121.782 917.817 119.421 917.817C116.821 917.817 114.571 918.463 112.671 919.754C110.79 921.027 109.342 922.687 108.327 924.734C107.313 926.781 106.806 928.976 106.806 931.318V935.081C106.806 938.29 107.359 941.01 108.466 943.242C109.591 945.455 111.149 947.143 113.141 948.305C115.133 949.448 117.448 950.02 120.085 950.02C121.801 950.02 123.35 949.78 124.733 949.301C126.135 948.803 127.343 948.065 128.357 947.088C129.372 946.092 130.156 944.856 130.709 943.38L137.017 945.151C136.353 947.291 135.237 949.172 133.669 950.795C132.101 952.399 130.165 953.654 127.859 954.557C125.554 955.443 122.963 955.885 120.085 955.885ZM164.876 955.885C160.892 955.885 157.462 954.945 154.584 953.063C151.707 951.182 149.494 948.591 147.945 945.289C146.395 941.988 145.621 938.216 145.621 933.974C145.621 929.658 146.414 925.85 148 922.548C149.604 919.228 151.836 916.637 154.695 914.774C157.572 912.893 160.929 911.952 164.765 911.952C167.753 911.952 170.446 912.506 172.844 913.612C175.241 914.719 177.206 916.268 178.736 918.26C180.267 920.252 181.217 922.576 181.586 925.232H175.057C174.559 923.295 173.452 921.58 171.737 920.086C170.04 918.574 167.753 917.817 164.876 917.817C162.331 917.817 160.099 918.481 158.181 919.809C156.281 921.119 154.796 922.972 153.727 925.37C152.675 927.749 152.15 930.544 152.15 933.753C152.15 937.036 152.666 939.895 153.699 942.329C154.75 944.764 156.226 946.654 158.126 948.001C160.044 949.347 162.294 950.02 164.876 950.02C166.573 950.02 168.113 949.725 169.496 949.135C170.879 948.545 172.051 947.696 173.01 946.59C173.969 945.483 174.651 944.155 175.057 942.606H181.586C181.217 945.114 180.304 947.374 178.847 949.384C177.408 951.376 175.5 952.962 173.12 954.142C170.759 955.304 168.011 955.885 164.876 955.885ZM197.66 929.437V955H191.131V898.341H197.66V919.145H198.213C199.209 916.951 200.703 915.208 202.695 913.917C204.705 912.607 207.38 911.952 210.718 911.952C213.614 911.952 216.15 912.533 218.326 913.695C220.502 914.839 222.19 916.6 223.389 918.979C224.606 921.34 225.215 924.346 225.215 927.998V955H218.686V928.441C218.686 925.066 217.809 922.456 216.057 920.612C214.324 918.749 211.917 917.817 208.837 917.817C206.697 917.817 204.779 918.269 203.082 919.173C201.404 920.077 200.076 921.395 199.098 923.129C198.139 924.863 197.66 926.965 197.66 929.437ZM243.688 929.437V955H237.159V912.506H243.467V919.145H244.02C245.016 916.987 246.529 915.254 248.558 913.944C250.586 912.616 253.205 911.952 256.415 911.952C259.292 911.952 261.809 912.542 263.967 913.723C266.125 914.885 267.804 916.655 269.002 919.035C270.201 921.395 270.801 924.383 270.801 927.998V955H264.272V928.441C264.272 925.103 263.405 922.502 261.671 920.639C259.937 918.758 257.558 917.817 254.533 917.817C252.449 917.817 250.586 918.269 248.945 919.173C247.322 920.077 246.04 921.395 245.099 923.129C244.159 924.863 243.688 926.965 243.688 929.437ZM282.731 955V912.506H289.261V955H282.731ZM286.051 905.423C284.779 905.423 283.681 904.99 282.759 904.123C281.855 903.256 281.404 902.214 281.404 900.997C281.404 899.779 281.855 898.737 282.759 897.87C283.681 897.004 284.779 896.57 286.051 896.57C287.324 896.57 288.412 897.004 289.316 897.87C290.238 898.737 290.699 899.779 290.699 900.997C290.699 902.214 290.238 903.256 289.316 904.123C288.412 904.99 287.324 905.423 286.051 905.423ZM318.482 955.885C314.499 955.885 311.068 954.945 308.191 953.063C305.314 951.182 303.1 948.591 301.551 945.289C300.002 941.988 299.227 938.216 299.227 933.974C299.227 929.658 300.02 925.85 301.606 922.548C303.211 919.228 305.443 916.637 308.301 914.774C311.179 912.893 314.535 911.952 318.372 911.952C321.36 911.952 324.052 912.506 326.45 913.612C328.848 914.719 330.812 916.268 332.343 918.26C333.874 920.252 334.824 922.576 335.192 925.232H328.663C328.165 923.295 327.059 921.58 325.343 920.086C323.647 918.574 321.36 917.817 318.482 917.817C315.937 917.817 313.705 918.481 311.787 919.809C309.888 921.119 308.403 922.972 307.333 925.37C306.282 927.749 305.756 930.544 305.756 933.753C305.756 937.036 306.273 939.895 307.305 942.329C308.357 944.764 309.832 946.654 311.732 948.001C313.65 949.347 315.9 950.02 318.482 950.02C320.179 950.02 321.719 949.725 323.103 949.135C324.486 948.545 325.657 947.696 326.616 946.59C327.575 945.483 328.258 944.155 328.663 942.606H335.192C334.824 945.114 333.911 947.374 332.454 949.384C331.015 951.376 329.106 952.962 326.727 954.142C324.366 955.304 321.618 955.885 318.482 955.885ZM357.242 955.996C354.549 955.996 352.105 955.489 349.911 954.474C347.716 953.442 345.973 951.957 344.682 950.02C343.391 948.065 342.745 945.704 342.745 942.938C342.745 940.503 343.225 938.53 344.184 937.017C345.143 935.487 346.425 934.288 348.029 933.421C349.634 932.554 351.404 931.908 353.341 931.484C355.296 931.042 357.26 930.691 359.234 930.433C361.816 930.101 363.909 929.852 365.514 929.686C367.137 929.502 368.317 929.197 369.055 928.773C369.811 928.349 370.189 927.611 370.189 926.56V926.338C370.189 923.609 369.442 921.488 367.949 919.975C366.473 918.463 364.232 917.707 361.226 917.707C358.109 917.707 355.665 918.389 353.894 919.754C352.124 921.119 350.879 922.576 350.16 924.125L343.962 921.912C345.069 919.33 346.545 917.319 348.389 915.881C350.252 914.424 352.281 913.409 354.475 912.838C356.689 912.247 358.865 911.952 361.004 911.952C362.369 911.952 363.937 912.118 365.708 912.45C367.497 912.764 369.221 913.419 370.881 914.415C372.559 915.41 373.952 916.914 375.059 918.924C376.165 920.934 376.719 923.627 376.719 927.002V955H370.189V949.246H369.857C369.415 950.168 368.677 951.154 367.644 952.206C366.611 953.257 365.237 954.152 363.522 954.889C361.807 955.627 359.713 955.996 357.242 955.996ZM358.238 950.131C360.82 950.131 362.996 949.624 364.767 948.609C366.556 947.595 367.902 946.285 368.806 944.681C369.728 943.076 370.189 941.389 370.189 939.618V933.642C369.913 933.974 369.304 934.278 368.364 934.555C367.441 934.813 366.372 935.044 365.154 935.247C363.955 935.431 362.784 935.597 361.641 935.745C360.516 935.874 359.603 935.984 358.902 936.077C357.205 936.298 355.619 936.658 354.143 937.156C352.686 937.635 351.506 938.364 350.602 939.341C349.717 940.3 349.274 941.61 349.274 943.27C349.274 945.538 350.113 947.254 351.792 948.416C353.489 949.559 355.637 950.131 358.238 950.131ZM395.165 898.341V955H388.636V898.341H395.165ZM460.905 912.506C460.573 909.702 459.227 907.526 456.866 905.977C454.505 904.427 451.609 903.653 448.179 903.653C445.671 903.653 443.476 904.058 441.594 904.87C439.732 905.681 438.275 906.797 437.223 908.217C436.19 909.638 435.674 911.251 435.674 913.059C435.674 914.571 436.034 915.872 436.753 916.96C437.491 918.03 438.431 918.924 439.575 919.643C440.718 920.344 441.917 920.925 443.171 921.386C444.426 921.829 445.578 922.189 446.63 922.465L452.384 924.014C453.86 924.402 455.501 924.937 457.309 925.619C459.134 926.302 460.877 927.233 462.537 928.413C464.216 929.575 465.599 931.069 466.687 932.895C467.775 934.721 468.319 936.962 468.319 939.618C468.319 942.68 467.517 945.446 465.913 947.918C464.326 950.389 462.002 952.353 458.941 953.81C455.898 955.267 452.2 955.996 447.847 955.996C443.789 955.996 440.276 955.341 437.306 954.032C434.355 952.722 432.031 950.896 430.335 948.554C428.656 946.212 427.706 943.491 427.485 940.393H434.567C434.752 942.532 435.471 944.303 436.725 945.704C437.998 947.088 439.603 948.12 441.539 948.803C443.494 949.467 445.597 949.799 447.847 949.799C450.466 949.799 452.817 949.375 454.902 948.526C456.986 947.659 458.636 946.461 459.854 944.93C461.071 943.38 461.68 941.573 461.68 939.507C461.68 937.626 461.154 936.095 460.103 934.915C459.051 933.734 457.668 932.775 455.953 932.038C454.238 931.3 452.384 930.654 450.392 930.101L443.42 928.109C438.994 926.836 435.49 925.02 432.907 922.659C430.325 920.298 429.034 917.209 429.034 913.391C429.034 910.219 429.892 907.452 431.607 905.091C433.341 902.712 435.665 900.868 438.579 899.558C441.511 898.23 444.785 897.566 448.4 897.566C452.052 897.566 455.298 898.221 458.138 899.53C460.979 900.821 463.229 902.592 464.889 904.842C466.567 907.092 467.453 909.647 467.545 912.506H460.905ZM495.978 955.885C492.142 955.885 488.776 954.972 485.88 953.146C483.003 951.32 480.753 948.766 479.13 945.483C477.525 942.2 476.723 938.364 476.723 933.974C476.723 929.548 477.525 925.684 479.13 922.382C480.753 919.081 483.003 916.517 485.88 914.691C488.776 912.865 492.142 911.952 495.978 911.952C499.814 911.952 503.171 912.865 506.048 914.691C508.944 916.517 511.194 919.081 512.799 922.382C514.422 925.684 515.233 929.548 515.233 933.974C515.233 938.364 514.422 942.2 512.799 945.483C511.194 948.766 508.944 951.32 506.048 953.146C503.171 954.972 499.814 955.885 495.978 955.885ZM495.978 950.02C498.892 950.02 501.29 949.273 503.171 947.779C505.052 946.285 506.445 944.321 507.349 941.886C508.252 939.452 508.704 936.814 508.704 933.974C508.704 931.134 508.252 928.487 507.349 926.034C506.445 923.581 505.052 921.598 503.171 920.086C501.29 918.574 498.892 917.817 495.978 917.817C493.064 917.817 490.666 918.574 488.785 920.086C486.904 921.598 485.511 923.581 484.608 926.034C483.704 928.487 483.252 931.134 483.252 933.974C483.252 936.814 483.704 939.452 484.608 941.886C485.511 944.321 486.904 946.285 488.785 947.779C490.666 949.273 493.064 950.02 495.978 950.02ZM531.729 898.341V955H525.2V898.341H531.729ZM570.468 937.626V912.506H576.997V955H570.468V947.807H570.025C569.029 949.965 567.48 951.8 565.377 953.312C563.275 954.806 560.619 955.553 557.41 955.553C554.754 955.553 552.393 954.972 550.327 953.81C548.262 952.63 546.639 950.859 545.458 948.499C544.278 946.119 543.688 943.122 543.688 939.507V912.506H550.217V939.065C550.217 942.163 551.083 944.635 552.817 946.479C554.569 948.323 556.801 949.246 559.512 949.246C561.135 949.246 562.786 948.831 564.464 948.001C566.161 947.171 567.581 945.898 568.725 944.183C569.887 942.467 570.468 940.282 570.468 937.626ZM607.436 912.506V918.039H585.414V912.506H607.436ZM591.833 902.325H598.362V942.827C598.362 944.671 598.629 946.055 599.164 946.977C599.717 947.881 600.418 948.489 601.267 948.803C602.133 949.098 603.046 949.246 604.005 949.246C604.725 949.246 605.315 949.209 605.776 949.135C606.237 949.043 606.606 948.969 606.883 948.914L608.211 954.779C607.768 954.945 607.15 955.111 606.357 955.277C605.564 955.461 604.559 955.553 603.342 955.553C601.497 955.553 599.69 955.157 597.919 954.364C596.167 953.571 594.71 952.363 593.548 950.739C592.404 949.116 591.833 947.069 591.833 944.598V902.325ZM617.257 955V912.506H623.786V955H617.257ZM620.577 905.423C619.305 905.423 618.207 904.99 617.285 904.123C616.381 903.256 615.929 902.214 615.929 900.997C615.929 899.779 616.381 898.737 617.285 897.87C618.207 897.004 619.305 896.57 620.577 896.57C621.85 896.57 622.938 897.004 623.842 897.87C624.764 898.737 625.225 899.779 625.225 900.997C625.225 902.214 624.764 903.256 623.842 904.123C622.938 904.99 621.85 905.423 620.577 905.423ZM653.008 955.885C649.172 955.885 645.806 954.972 642.91 953.146C640.033 951.32 637.783 948.766 636.16 945.483C634.555 942.2 633.753 938.364 633.753 933.974C633.753 929.548 634.555 925.684 636.16 922.382C637.783 919.081 640.033 916.517 642.91 914.691C645.806 912.865 649.172 911.952 653.008 911.952C656.844 911.952 660.201 912.865 663.078 914.691C665.974 916.517 668.224 919.081 669.829 922.382C671.452 925.684 672.263 929.548 672.263 933.974C672.263 938.364 671.452 942.2 669.829 945.483C668.224 948.766 665.974 951.32 663.078 953.146C660.201 954.972 656.844 955.885 653.008 955.885ZM653.008 950.02C655.922 950.02 658.32 949.273 660.201 947.779C662.082 946.285 663.475 944.321 664.379 941.886C665.282 939.452 665.734 936.814 665.734 933.974C665.734 931.134 665.282 928.487 664.379 926.034C663.475 923.581 662.082 921.598 660.201 920.086C658.32 918.574 655.922 917.817 653.008 917.817C650.094 917.817 647.696 918.574 645.815 920.086C643.934 921.598 642.541 923.581 641.638 926.034C640.734 928.487 640.282 931.134 640.282 933.974C640.282 936.814 640.734 939.452 641.638 941.886C642.541 944.321 643.934 946.285 645.815 947.779C647.696 949.273 650.094 950.02 653.008 950.02ZM688.759 929.437V955H682.23V912.506H688.538V919.145H689.091C690.087 916.987 691.599 915.254 693.628 913.944C695.657 912.616 698.276 911.952 701.485 911.952C704.363 911.952 706.88 912.542 709.038 913.723C711.196 914.885 712.874 916.655 714.073 919.035C715.272 921.395 715.871 924.383 715.871 927.998V955H709.342V928.441C709.342 925.103 708.476 922.502 706.742 920.639C705.008 918.758 702.629 917.817 699.604 917.817C697.52 917.817 695.657 918.269 694.016 919.173C692.393 920.077 691.111 921.395 690.17 923.129C689.229 924.863 688.759 926.965 688.759 929.437ZM757.902 922.023L752.037 923.683C751.668 922.705 751.124 921.755 750.405 920.833C749.704 919.892 748.745 919.118 747.528 918.509C746.31 917.9 744.752 917.596 742.852 917.596C740.252 917.596 738.085 918.195 736.351 919.394C734.636 920.575 733.778 922.078 733.778 923.904C733.778 925.527 734.368 926.809 735.549 927.749C736.729 928.69 738.573 929.474 741.082 930.101L747.389 931.65C751.189 932.572 754.02 933.983 755.883 935.883C757.746 937.764 758.677 940.19 758.677 943.159C758.677 945.594 757.976 947.77 756.574 949.688C755.191 951.606 753.255 953.119 750.765 954.225C748.275 955.332 745.379 955.885 742.078 955.885C737.743 955.885 734.156 954.945 731.316 953.063C728.475 951.182 726.677 948.434 725.921 944.819L732.118 943.27C732.708 945.557 733.824 947.272 735.466 948.416C737.126 949.559 739.293 950.131 741.967 950.131C745.01 950.131 747.426 949.485 749.215 948.194C751.023 946.885 751.927 945.317 751.927 943.491C751.927 942.016 751.41 940.78 750.377 939.784C749.344 938.769 747.758 938.013 745.619 937.515L738.536 935.855C734.645 934.933 731.786 933.504 729.96 931.567C728.153 929.612 727.249 927.168 727.249 924.236C727.249 921.838 727.922 919.717 729.268 917.873C730.633 916.028 732.487 914.581 734.829 913.529C737.19 912.478 739.864 911.952 742.852 911.952C747.057 911.952 750.359 912.874 752.757 914.719C755.173 916.563 756.888 918.998 757.902 922.023Z" fill="#6A6A6A"/>
</svg>
