<svg width="817" height="566" viewBox="0 0 817 566" fill="none" xmlns="http://www.w3.org/2000/svg">
<path d="M202.247 266.275C197.017 261.195 189.987 252.725 190.707 242.875C191.357 233.945 198.037 228.465 227.417 205.955C245.857 191.825 253.917 185.775 265.277 175.585C277.457 164.655 283.947 158.705 288.987 148.125C289.757 146.515 301.267 121.705 291.407 111.615C285.837 105.915 275.877 107.655 272.127 107.885C178.267 113.695 100.397 200.365 107.887 290.675C116.517 394.745 202.417 467.725 302.287 455.835C390.857 445.295 455.798 374.245 457.788 285.285C458.328 260.925 457.868 236.545 457.868 210.215C495.538 210.245 533.208 210.275 570.888 210.305C575.108 242.155 583.608 338.385 524.698 430.635C514.178 447.115 482.748 489.035 438.188 518.735C267.878 632.265 35.5373 528.765 3.47728 326.625C-23.6127 155.835 111.127 -0.975431 284.117 0.00456924C342.607 0.334569 400.937 78.8146 397.127 144.635C393.747 203.065 343.207 241.815 331.847 250.455C316.447 262.175 281.367 288.875 238.457 281.235C222.307 278.375 210.007 271.535 202.247 266.275Z" fill="#6854FC"/>
<path d="M458.063 154.5C458.063 122.65 458.233 92.81 457.993 62.97C457.863 46.52 469.653 49.0599 479.533 49.0499C548.953 48.9299 618.373 48.9899 687.793 48.9899C730.233 48.9899 772.673 48.9899 816.653 48.9899C816.653 85.1599 816.653 118.77 816.653 154.51C698.483 154.5 579.973 154.5 458.063 154.5Z" fill="#6854FC"/>
<path d="M757.433 299.88C757.433 336.81 757.433 370.31 757.433 405.26C704.563 405.26 651.693 405.26 598.823 405.26C605.653 394.02 613.363 378.91 619.263 360.18C626.623 336.83 628.543 316.16 628.753 301.14C650.873 301.1 668.793 300.93 681.153 300.78C696.073 300.6 705.193 300.44 722.433 300.23C737.323 300.06 749.483 299.95 757.433 299.88Z" fill="#6854FC"/>
</svg>
